<?xml version="1.0" encoding="utf-8"?>
<!-- Generator: Adobe Illustrator 23.0.1, SVG Export Plug-In . SVG Version: 6.00 Build 0)  -->
<svg version="1.1" id="Capa_1" xmlns="http://www.w3.org/2000/svg" xmlns:xlink="http://www.w3.org/1999/xlink" x="0px" y="0px"
	 viewBox="0 0 134 47" style="enable-background:new 0 0 134 47;" xml:space="preserve">
<style type="text/css">
	.st0{fill:#1D1D1B;}
</style>
<g>
	<polygon class="st0" points="31.58,18.65 31.48,18.65 23.13,41.98 20.64,41.98 12.59,18.65 12.49,18.65 9.22,41.5 2,41.5 8.2,3.72 
		13.27,3.72 22.35,27.98 31.04,3.72 36.21,3.72 41.73,41.5 34.51,41.5 	"/>
	<path class="st0" d="M61.29,29.49c0-3.22-2.19-6.68-5.71-6.68c-3.51,0-5.66,3.46-5.66,6.68c0,3.22,2.15,6.73,5.66,6.73
		C59.1,36.22,61.29,32.71,61.29,29.49 M67.35,41.5h-6.74v-2.2h-0.1c-1.46,1.9-4,2.98-6.49,2.98c-7.03,0-11.03-6.39-11.03-12.89
		c0-6.35,4.05-12.64,10.93-12.64c2.49,0,5.03,1.08,6.68,3.03v-2.25h6.74V41.5z"/>
	<path class="st0" d="M79.1,20.02h0.1c1.37-2.1,3.42-3.27,5.96-3.27c0.97,0,1.95,0.25,2.83,0.59l-0.83,6.34
		c-0.83-0.59-1.81-0.88-2.83-0.88c-4.74,0-5.22,4.2-5.22,7.91V41.5h-6.83V17.53h6.83V20.02z"/>
	<polygon class="st0" points="99.8,41.5 92.96,41.5 92.96,23.29 90.62,23.29 90.62,17.53 92.96,17.53 92.96,9.43 99.8,9.43 
		99.8,17.53 103.99,17.53 103.99,23.29 99.8,23.29 	"/>
	<path class="st0" d="M123.5,29.49c0-3.22-2.2-6.68-5.71-6.68c-3.51,0-5.66,3.46-5.66,6.68c0,3.22,2.15,6.73,5.66,6.73
		C121.31,36.22,123.5,32.71,123.5,29.49 M129.56,41.5h-6.74v-2.2h-0.1c-1.46,1.9-4,2.98-6.49,2.98c-7.03,0-11.03-6.39-11.03-12.89
		c0-6.35,4.05-12.64,10.93-12.64c2.49,0,5.03,1.08,6.69,3.03v-2.25h6.74V41.5z"/>
</g>
</svg>
