<?xml version="1.0" encoding="utf-8"?>
<!-- Generator: Adobe Illustrator 23.0.1, SVG Export Plug-In . SVG Version: 6.00 Build 0)  -->
<svg version="1.1" id="Capa_1" xmlns="http://www.w3.org/2000/svg" xmlns:xlink="http://www.w3.org/1999/xlink" x="0px" y="0px"
	 viewBox="0 0 31 29" style="enable-background:new 0 0 31 29;" xml:space="preserve">
<g>
	<path d="M3.2,6.2h24.7c0.6,0,1.2-0.7,1.2-1.6C29,3.7,28.5,3,27.8,3H3.2C2.5,3,2,3.7,2,4.6C2,5.5,2.5,6.2,3.2,6.2z"/>
	<path d="M3.2,16.1h24.7c0.6,0,1.2-0.7,1.2-1.6c0-0.9-0.5-1.6-1.2-1.6H3.2c-0.6,0-1.2,0.7-1.2,1.6C2,15.4,2.5,16.1,3.2,16.1z"/>
	<path d="M3.2,26h24.7c0.6,0,1.2-0.7,1.2-1.6c0-0.9-0.5-1.6-1.2-1.6H3.2c-0.6,0-1.2,0.7-1.2,1.6C2,25.3,2.5,26,3.2,26z"/>
</g>
</svg>
