<?xml version="1.0" encoding="utf-8"?>
<!-- Generator: Adobe Illustrator 23.0.1, SVG Export Plug-In . SVG Version: 6.00 Build 0)  -->
<svg version="1.1" id="Capa_1" xmlns="http://www.w3.org/2000/svg" xmlns:xlink="http://www.w3.org/1999/xlink" x="0px" y="0px"
	 viewBox="0 0 134 47" style="enable-background:new 0 0 134 47;" xml:space="preserve">
<style type="text/css">
	.st0{fill:#FFFFFF;}
</style>
<g>
	<polygon class="st0" points="31.6,18.6 31.5,18.6 23.1,42 20.6,42 12.6,18.6 12.5,18.6 9.2,41.5 2,41.5 8.2,3.7 13.3,3.7 22.4,28 
		31,3.7 36.2,3.7 41.7,41.5 34.5,41.5 	"/>
	<path class="st0" d="M61.3,29.5c0-3.2-2.2-6.7-5.7-6.7c-3.5,0-5.7,3.5-5.7,6.7s2.2,6.7,5.7,6.7C59.1,36.2,61.3,32.7,61.3,29.5
		 M67.3,41.5h-6.7v-2.2h-0.1c-1.5,1.9-4,3-6.5,3c-7,0-11-6.4-11-12.9c0-6.4,4-12.6,10.9-12.6c2.5,0,5,1.1,6.7,3v-2.2h6.7L67.3,41.5
		L67.3,41.5z"/>
	<path class="st0" d="M79.1,20L79.1,20c1.5-2.1,3.5-3.3,6.1-3.3c1,0,1.9,0.2,2.8,0.6l-0.8,6.3c-0.8-0.6-1.8-0.9-2.8-0.9
		c-4.7,0-5.2,4.2-5.2,7.9v10.8h-6.8v-24h6.8L79.1,20L79.1,20z"/>
	<polygon class="st0" points="99.8,41.5 93,41.5 93,23.3 90.6,23.3 90.6,17.5 93,17.5 93,9.4 99.8,9.4 99.8,17.5 104,17.5 104,23.3 
		99.8,23.3 	"/>
	<path class="st0" d="M123.5,29.5c0-3.2-2.2-6.7-5.7-6.7s-5.7,3.5-5.7,6.7s2.2,6.7,5.7,6.7C121.3,36.2,123.5,32.7,123.5,29.5
		 M129.6,41.5h-6.7v-2.2h-0.1c-1.5,1.9-4,3-6.5,3c-7,0-11-6.4-11-12.9c0-6.4,4.1-12.6,10.9-12.6c2.5,0,5,1.1,6.7,3v-2.2h6.7
		L129.6,41.5L129.6,41.5z"/>
</g>
</svg>
