<?xml version="1.0" encoding="utf-8"?>
<!-- Generator: Adobe Illustrator 23.0.1, SVG Export Plug-In . SVG Version: 6.00 Build 0)  -->
<svg version="1.1" id="Capa_1" xmlns="http://www.w3.org/2000/svg" xmlns:xlink="http://www.w3.org/1999/xlink" x="0px" y="0px"
	 viewBox="0 0 31 29" style="enable-background:new 0 0 31 29;" xml:space="preserve">
<path d="M5.6,7.1L23,24.5c0.5,0.5,1.3,0.3,1.9-0.3c0.6-0.6,0.8-1.5,0.3-1.9L7.8,4.8C7.4,4.4,6.5,4.5,5.9,5.1
	C5.3,5.7,5.1,6.6,5.6,7.1z"/>
<path d="M8.1,24.4L25.5,7C26,6.5,25.8,5.6,25.2,5c-0.6-0.6-1.5-0.8-1.9-0.3L5.8,22.2c-0.5,0.4-0.3,1.3,0.3,1.9
	C6.7,24.7,7.6,24.9,8.1,24.4z"/>
</svg>
